<?xml version="1.0" standalone="no"?>
<!DOCTYPE svg PUBLIC "-//W3C//DTD SVG 20010904//EN"
 "http://www.w3.org/TR/2001/REC-SVG-20010904/DTD/svg10.dtd">
<svg version="1.0" xmlns="http://www.w3.org/2000/svg"
 width="512.000000pt" height="512.000000pt" viewBox="0 0 512.000000 512.000000"
 preserveAspectRatio="xMidYMid meet">
<metadata>
Created by potrace 1.11, written by Peter Selinger 2001-2013
</metadata>
<g transform="translate(0.000000,512.000000) scale(0.100000,-0.100000)"
fill="#000000" stroke="none">
<path d="M0 2560 l0 -2560 2560 0 2560 0 0 2560 0 2560 -2560 0 -2560 0 0
-2560z m4200 -40 l0 -1000 -1640 0 -1640 0 0 1000 0 1000 1640 0 1640 0 0
-1000z"/>
<path d="M1473 2823 c3 -5 51 -149 106 -321 l102 -313 81 3 81 3 72 215 72
215 70 -215 70 -215 81 -3 81 -3 102 313 c56 172 103 316 106 321 2 4 -29 7
-69 7 l-74 0 -62 -195 c-34 -107 -68 -207 -74 -223 -10 -25 -17 -9 -83 193
l-72 220 -70 3 -70 3 -74 -216 c-40 -118 -76 -215 -79 -215 -4 0 -37 97 -75
215 l-69 215 -78 0 c-44 0 -77 -3 -75 -7z"/>
<path d="M2512 2773 l3 -58 103 -3 102 -3 0 -259 0 -260 75 0 75 0 0 260 0
260 100 0 100 0 0 60 0 60 -280 0 -281 0 3 -57z"/>
<path d="M3150 2510 l0 -320 75 0 75 0 0 115 0 115 145 0 145 0 0 60 0 60
-145 0 -145 0 0 85 0 85 165 0 165 0 0 60 0 60 -240 0 -240 0 0 -320z"/>
</g>
</svg>
