<?xml version="1.0" standalone="no"?>
<!DOCTYPE svg PUBLIC "-//W3C//DTD SVG 20010904//EN"
 "http://www.w3.org/TR/2001/REC-SVG-20010904/DTD/svg10.dtd">
<svg version="1.0" xmlns="http://www.w3.org/2000/svg"
 width="520.000000pt" height="520.000000pt" viewBox="0 0 520.000000 520.000000"
 preserveAspectRatio="xMidYMid meet">
<metadata>
Created by potrace 1.11, written by Peter Selinger 2001-2013
</metadata>
<g transform="translate(0.000000,520.000000) scale(0.100000,-0.100000)"
fill="#000000" stroke="none">
<path d="M4410 2600 l0 -1810 -1810 0 -1810 0 0 -135 0 -135 1945 0 1945 0 0
1945 0 1945 -135 0 -135 0 0 -1810z"/>
<path d="M980 3164 c0 -7 66 -211 99 -309 10 -27 25 -72 35 -100 9 -27 23 -70
30 -95 15 -50 29 -90 57 -165 11 -28 19 -57 19 -65 0 -8 9 -34 20 -58 l19 -43
103 3 102 3 34 95 c18 52 37 109 42 125 12 42 40 121 62 177 10 26 18 53 18
61 0 8 8 33 19 56 l18 41 88 -267 c48 -148 89 -274 91 -280 2 -10 34 -13 114
-13 98 0 110 2 110 17 0 10 8 40 19 68 28 75 42 115 57 165 7 25 20 65 29 90
8 25 47 140 84 255 38 116 73 218 76 228 7 15 -1 17 -87 17 l-95 0 -98 -295
c-98 -294 -99 -295 -112 -263 -8 18 -21 56 -28 83 -8 28 -22 73 -31 100 -38
109 -52 153 -73 220 -13 39 -29 89 -38 113 l-15 42 -88 0 -88 0 -16 -42 c-29
-82 -158 -463 -171 -508 l-13 -45 -11 28 c-6 15 -14 40 -17 55 -3 15 -14 50
-24 77 -10 28 -47 137 -81 243 l-62 192 -99 0 c-54 0 -98 -3 -98 -6z"/>
<path d="M2430 3090 l0 -80 135 0 135 0 0 -340 0 -340 100 0 100 0 0 340 0
340 135 0 135 0 0 80 0 80 -370 0 -370 0 0 -80z"/>
<path d="M3270 2750 l0 -420 95 0 95 0 0 150 0 150 200 0 200 0 0 80 0 80
-200 0 -201 0 3 113 3 112 223 3 222 2 0 75 0 75 -320 0 -320 0 0 -420z"/>
</g>
</svg>
